<?xml version="1.0" encoding="UTF-8" standalone="no"?>
<svg
   height="24px"
   viewBox="0 -960 960 960"
   width="24px"
   fill="#e3e3e3"
   version="1.1"
   id="svg1"
   xmlns="http://www.w3.org/2000/svg"
   xmlns:svg="http://www.w3.org/2000/svg">
  <defs
     id="defs1" />
  <path
     d="M360-120q-66 0-113-47t-47-113v-327q-35-13-57.5-43.5T120-720q0-50 35-85t85-35q50 0 85 35t35 85q0 39-22.5 69.5T280-607v327q0 33 23.5 56.5T360-200q33 0 56.5-23.5T440-280v-400q0-66 47-113t113-47q66 0 113 47t47 113v327q35 13 57.5 43.5T840-240q0 50-35 85t-85 35q-50 0-85-35t-35-85q0-39 22.5-70t57.5-43v-327q0-33-23.5-56.5T600-760q-33 0-56.5 23.5T520-680v400q0 66-47 113t-113 47ZM240-680q17 0 28.5-11.5T280-720q0-17-11.5-28.5T240-760q-17 0-28.5 11.5T200-720q0 17 11.5 28.5T240-680Zm480 480q17 0 28.5-11.5T760-240q0-17-11.5-28.5T720-280q-17 0-28.5 11.5T680-240q0 17 11.5 28.5T720-200ZM240-720Zm480 480Z"
     id="path1"
     style="fill:#0000ff" />
  <path
     d="m 553.26733,-123.16832 v -123 l 221,-220 c 6,-6 12.66667,-10.33333 20,-13 7.33333,-2.66667 14.66667,-4 22,-4 8,0 15.66667,1.5 23,4.5 7.33333,3 14,7.5 20,13.5 l 37,37 c 5.33333,6 9.5,12.66667 12.5,20 3,7.33333 4.5,14.66667 4.5,22 0,7.33333 -1.33333,14.83333 -4,22.5 -2.66667,7.66667 -7,14.5 -13,20.5 l -220,220 z m 300,-263 -37,-37 z m -240,203 h 38 l 121,-122 -18,-19 -19,-18 -122,121 z m 141,-141 -19,-18 37,37 z"
     id="path1-5"
     style="fill:#008000" />
</svg>
